<?xml version="1.0" encoding="UTF-8"?>
<svg width="500" height="500" version="1.1" viewBox="-250 -250 500 500" xmlns="http://www.w3.org/2000/svg" xmlns:xlink="http://www.w3.org/1999/xlink">
 <defs>
  <g id="d">
   <circle r="780"/>
   <circle cx="-1351" r="780"/>
   <circle cx="1351" r="780"/>
   <circle cx="2702" r="780"/>
   <circle cx="-2702" r="780"/>
  </g>
  <g id="f">
   <circle cx="675.5" cy="-390" r="780"/>
   <circle cx="675.5" cy="390" r="780"/>
   <circle cx="675.5" cy="1170" r="780"/>
   <circle cx="675.5" cy="-1170" r="780"/>
   <circle cx="675.5" cy="-1950" r="780"/>
   <circle cx="675.5" cy="1950" r="780"/>
   <circle cx="675.5" cy="-2730" r="780"/>
   <circle cx="675.5" cy="2730" r="780"/>
  </g>
  <!-- Umriss -->
  <path id="outline" d="M-2026,-390       a780 780 0,0,0 0,780 780 780 0,0,0 675.5,1170       780,780 0,0,0 675.5,390 780,780 0,0,0 1351,0       780,780 0,0,0 675.5,-390 780 780 0,0,0 675.5,-1170       780 780 0,0,0 0,-780 780 780 0,0,0 -675.5,-1170       780,780 0,0,0 -675.5,-390 780,780 0,0,0 -1351,0       780,780 0,0,0 -675.5,390 780 780 0,0,0 -675.5,1170      "/>
   <clipPath id="outl">
    <use xlink:href="#outline"/>
   </clipPath>
 </defs>
 <g transform="scale(.1)" stroke="#C6CBD1" stroke-width="15" fill="none">
  <g clip-path="url(#outl)">
  <use xlink:href="#d"/>
  <use y="780" xlink:href="#d"/>
  <use y="-780" xlink:href="#d"/>
  <use y="-1560" xlink:href="#d"/>
  <use y="1560" xlink:href="#d"/>
  <use y="-2340" xlink:href="#d"/>
  <use y="2340" xlink:href="#d"/>
  <use xlink:href="#f"/>
  <use x="-1351" xlink:href="#f"/>
  <use x="1351" xlink:href="#f"/>
  <use x="-2702" xlink:href="#f"/>
  <use x="-2702" xlink:href="#f"/>
  </g>
  <use xlink:href="#outline"/>
  <circle r="2340"/>
  <circle r="2453"/>
 </g>
</svg>